<svg width="50" height="50" viewBox="0 0 50 50" fill="none" xmlns="http://www.w3.org/2000/svg">
<g filter="url(#filter0_i_7_218)">
<circle cx="25" cy="25" r="25" fill="#F67579"/>
</g>
<path d="M21 31C21.7536 30.6667 22.913 30 25.1739 30C27.0948 30 28.7101 30.7333 29 31" stroke="black" stroke-linecap="round"/>
<line x1="18.1628" y1="25.4838" x2="14.7706" y2="23.3642" stroke="black"/>
<line x1="34.6932" y1="23.3642" x2="31.301" y2="25.4839" stroke="black"/>
<path d="M32.9447 26.4796C32.9447 27.2968 32.28 27.9593 31.4601 27.9593C30.6402 27.9593 29.9756 27.2968 29.9756 26.4796C29.9756 25.6625 30.6402 25 31.4601 25C32.28 25 32.9447 25.6625 32.9447 26.4796Z" fill="#161616"/>
<ellipse cx="18.4845" cy="26.4796" rx="1.48454" ry="1.47965" fill="#161616"/>
<defs>
<filter id="filter0_i_7_218" x="0" y="-4" width="50" height="54" filterUnits="userSpaceOnUse" color-interpolation-filters="sRGB">
<feFlood flood-opacity="0" result="BackgroundImageFix"/>
<feBlend mode="normal" in="SourceGraphic" in2="BackgroundImageFix" result="shape"/>
<feColorMatrix in="SourceAlpha" type="matrix" values="0 0 0 0 0 0 0 0 0 0 0 0 0 0 0 0 0 0 127 0" result="hardAlpha"/>
<feOffset dy="-5"/>
<feGaussianBlur stdDeviation="2"/>
<feComposite in2="hardAlpha" operator="arithmetic" k2="-1" k3="1"/>
<feColorMatrix type="matrix" values="0 0 0 0 0 0 0 0 0 0 0 0 0 0 0 0 0 0 0.25 0"/>
<feBlend mode="normal" in2="shape" result="effect1_innerShadow_7_218"/>
</filter>
</defs>
</svg>
