<svg width="50" height="50" viewBox="0 0 50 50" fill="none" xmlns="http://www.w3.org/2000/svg">
<g filter="url(#filter0_i_7_225)">
<circle cx="25" cy="25" r="25" fill="#FECD66"/>
</g>
<path d="M29 30C28.3406 30.3333 27.3261 31 25.3478 31C23.667 31 22.2536 30.2667 22 30" stroke="black" stroke-linecap="round"/>
<line x1="16" y1="22.5" x2="20" y2="22.5" stroke="black"/>
<line x1="31" y1="22.5" x2="35" y2="22.5" stroke="black"/>
<path d="M33.4793 26.443C33.4793 27.2602 32.8147 27.9227 31.9948 27.9227C31.1749 27.9227 30.5103 27.2602 30.5103 26.443C30.5103 25.6258 31.1749 24.9634 31.9948 24.9634C32.8147 24.9634 33.4793 25.6258 33.4793 26.443Z" fill="#161616"/>
<ellipse cx="19.0192" cy="26.443" rx="1.48454" ry="1.47965" fill="#161616"/>
<defs>
<filter id="filter0_i_7_225" x="0" y="-4" width="50" height="54" filterUnits="userSpaceOnUse" color-interpolation-filters="sRGB">
<feFlood flood-opacity="0" result="BackgroundImageFix"/>
<feBlend mode="normal" in="SourceGraphic" in2="BackgroundImageFix" result="shape"/>
<feColorMatrix in="SourceAlpha" type="matrix" values="0 0 0 0 0 0 0 0 0 0 0 0 0 0 0 0 0 0 127 0" result="hardAlpha"/>
<feOffset dy="-5"/>
<feGaussianBlur stdDeviation="2"/>
<feComposite in2="hardAlpha" operator="arithmetic" k2="-1" k3="1"/>
<feColorMatrix type="matrix" values="0 0 0 0 0 0 0 0 0 0 0 0 0 0 0 0 0 0 0.25 0"/>
<feBlend mode="normal" in2="shape" result="effect1_innerShadow_7_225"/>
</filter>
</defs>
</svg>
