<svg width="50" height="50" viewBox="0 0 50 50" fill="none" xmlns="http://www.w3.org/2000/svg">
<g filter="url(#filter0_i_7_196)">
<circle cx="25" cy="25" r="25" fill="#FC9802"/>
</g>
<g filter="url(#filter1_i_7_196)">
<circle cx="25" cy="25" r="25" fill="#FC9802"/>
</g>
<path d="M28 31C27.529 31.3333 26.8043 32 25.3913 32C24.1907 32 23.1812 31.2667 23 31" stroke="black" stroke-linecap="round"/>
<path d="M31.0001 21.9632C31.4527 21.7434 32.1903 21.2572 33.2791 21.5612C34.2042 21.8195 34.7849 22.743 34.8528 23.0388" stroke="black" stroke-linecap="round"/>
<path d="M15.2689 23.0387C15.5422 22.6164 15.9213 21.8184 17.0101 21.5144C17.9352 21.2562 18.9103 21.7453 19.1216 21.9632" stroke="black" stroke-linecap="round"/>
<path d="M33.4793 26.443C33.4793 27.2602 32.8147 27.9227 31.9948 27.9227C31.1749 27.9227 30.5103 27.2602 30.5103 26.443C30.5103 25.6258 31.1749 24.9634 31.9948 24.9634C32.8147 24.9634 33.4793 25.6258 33.4793 26.443Z" fill="#161616"/>
<ellipse cx="19.0192" cy="26.443" rx="1.48454" ry="1.47965" fill="#161616"/>
<defs>
<filter id="filter0_i_7_196" x="0" y="-4" width="50" height="54" filterUnits="userSpaceOnUse" color-interpolation-filters="sRGB">
<feFlood flood-opacity="0" result="BackgroundImageFix"/>
<feBlend mode="normal" in="SourceGraphic" in2="BackgroundImageFix" result="shape"/>
<feColorMatrix in="SourceAlpha" type="matrix" values="0 0 0 0 0 0 0 0 0 0 0 0 0 0 0 0 0 0 127 0" result="hardAlpha"/>
<feOffset dy="-5"/>
<feGaussianBlur stdDeviation="2"/>
<feComposite in2="hardAlpha" operator="arithmetic" k2="-1" k3="1"/>
<feColorMatrix type="matrix" values="0 0 0 0 0 0 0 0 0 0 0 0 0 0 0 0 0 0 0.25 0"/>
<feBlend mode="normal" in2="shape" result="effect1_innerShadow_7_196"/>
</filter>
<filter id="filter1_i_7_196" x="0" y="-4" width="50" height="54" filterUnits="userSpaceOnUse" color-interpolation-filters="sRGB">
<feFlood flood-opacity="0" result="BackgroundImageFix"/>
<feBlend mode="normal" in="SourceGraphic" in2="BackgroundImageFix" result="shape"/>
<feColorMatrix in="SourceAlpha" type="matrix" values="0 0 0 0 0 0 0 0 0 0 0 0 0 0 0 0 0 0 127 0" result="hardAlpha"/>
<feOffset dy="-5"/>
<feGaussianBlur stdDeviation="2"/>
<feComposite in2="hardAlpha" operator="arithmetic" k2="-1" k3="1"/>
<feColorMatrix type="matrix" values="0 0 0 0 0 0 0 0 0 0 0 0 0 0 0 0 0 0 0.25 0"/>
<feBlend mode="normal" in2="shape" result="effect1_innerShadow_7_196"/>
</filter>
</defs>
</svg>
