<svg width="2062" height="1809" viewBox="0 0 2062 1809" fill="none" xmlns="http://www.w3.org/2000/svg">
<rect x="0.153076" y="310.736" width="1200" height="1200" rx="50" transform="rotate(-15 0.153076 310.736)" fill="#57AA9B"/>
<circle cx="493.333" cy="644.463" r="100" transform="rotate(-15 493.333 644.463)" fill="white"/>
<circle cx="899.022" cy="535.759" r="100" transform="rotate(-15 899.022 535.759)" fill="white"/>
<path fill-rule="evenodd" clip-rule="evenodd" d="M1063.68 763.916C1063.73 764.077 1063.77 764.238 1063.81 764.399C1102.76 909.768 1000.28 1063.54 834.904 1107.85C669.53 1152.16 503.891 1070.24 464.939 924.866C464.896 924.705 464.853 924.544 464.81 924.383L1063.68 763.916Z" fill="white"/>
<path d="M461.935 406.007C322.258 442.751 230.568 537.891 229.789 612.9C229.692 622.322 239.151 628.056 248.191 625.401L268.87 619.327C275.411 617.406 279.898 611.515 280.96 604.78C294.478 519.057 411.488 465.396 469.48 453.102C479.929 450.887 487.625 440.123 484.614 429.875L480.791 416.856C478.408 408.743 470.112 403.855 461.935 406.007Z" fill="white"/>
<path d="M803.128 314.584C942.464 276.568 1069.44 313.116 1107.62 377.687C1112.41 385.797 1107.09 395.493 1097.93 397.713L1076.99 402.793C1070.36 404.4 1063.53 401.541 1059.24 396.24C1004.67 328.76 876.511 340.794 820.141 359.143C809.984 362.449 797.938 356.975 795.42 346.594L792.223 333.409C790.23 325.191 794.97 316.81 803.128 314.584Z" fill="white"/>
<rect x="1412" y="567" width="750" height="1000" rx="20" transform="rotate(30 1412 567)" fill="#A06C2D"/>
<rect x="1447.45" y="655.595" width="600" height="850" transform="rotate(30 1447.45 655.595)" fill="white"/>
<path fill-rule="evenodd" clip-rule="evenodd" d="M1601.49 686.794L1574.64 671.294L1499.64 801.198C1494.12 810.764 1497.4 822.996 1506.96 828.519L1775.43 983.519C1785 989.041 1797.23 985.764 1802.75 976.198L1877.75 846.294L1850.84 830.756L1790.84 934.68C1785.32 944.245 1773.09 947.523 1763.52 942L1548.81 818.038C1539.24 812.515 1535.97 800.283 1541.49 790.717L1601.49 686.794Z" fill="#B4B4B4"/>
<path opacity="0.6" d="M1417.06 844.244C1401.27 875.927 1357.5 959.394 1441.61 901.72C1521.6 846.864 1517.09 912.971 1505.37 955.277C1493.65 997.583 1551.6 976.197 1571.93 965.993C1592.26 955.788 1627.31 939.075 1613.51 1000.97C1599.72 1062.86 1634.17 1056.2 1664.61 1030.47C1695.05 1004.74 1752.75 995.912 1729.99 1068.22C1699.55 1164.96 1796.1 1082.72 1811.96 1072.24C1827.82 1061.77 1819.18 1123.75 1801.38 1151.58" stroke="#0B1215" stroke-width="10" stroke-linecap="round"/>
<path opacity="0.6" d="M1334.06 988.004C1318.27 1019.69 1274.5 1103.15 1358.61 1045.48C1438.6 990.625 1434.09 1056.73 1422.37 1099.04C1410.65 1141.34 1468.6 1119.96 1488.93 1109.75C1509.26 1099.55 1544.31 1082.84 1530.51 1144.73C1516.72 1206.62 1551.17 1199.96 1581.61 1174.23C1612.05 1148.5 1669.75 1139.67 1646.99 1211.98C1616.55 1308.72 1713.1 1226.48 1728.96 1216C1744.82 1205.53 1736.18 1267.51 1718.38 1295.34" stroke="#0B1215" stroke-width="10" stroke-linecap="round"/>
<path opacity="0.6" d="M1251.06 1131.76C1235.27 1163.45 1191.5 1246.91 1275.61 1189.24C1355.6 1134.38 1351.09 1200.49 1339.37 1242.8C1327.65 1285.1 1385.6 1263.72 1405.93 1253.51C1426.26 1243.31 1461.31 1226.6 1447.51 1288.49C1433.72 1350.38 1468.17 1343.72 1498.61 1317.99C1529.05 1292.26 1586.75 1283.43 1563.99 1355.74C1533.55 1452.48 1630.1 1370.24 1645.96 1359.76C1661.82 1349.29 1653.18 1411.27 1635.38 1439.1" stroke="#0B1215" stroke-width="10" stroke-linecap="round"/>
</svg>
