<svg width="50" height="50" viewBox="0 0 50 50" fill="none" xmlns="http://www.w3.org/2000/svg">
<g filter="url(#filter0_i_7_211)">
<circle cx="25" cy="25" r="25" fill="#83C5DD"/>
</g>
<path d="M22 31C22.5652 30.6667 23.4348 30 25.1304 30C26.5711 30 27.7826 30.7333 28 31" stroke="black" stroke-linecap="round"/>
<line x1="15.0181" y1="23.567" x2="18.4822" y2="21.567" stroke="black"/>
<line x1="30.5181" y1="21.567" x2="33.9822" y2="23.567" stroke="black"/>
<path d="M32.4793 26.443C32.4793 27.2602 31.8147 27.9227 30.9948 27.9227C30.1749 27.9227 29.5103 27.2602 29.5103 26.443C29.5103 25.6258 30.1749 24.9634 30.9948 24.9634C31.8147 24.9634 32.4793 25.6258 32.4793 26.443Z" fill="#161616"/>
<ellipse cx="18.0192" cy="26.443" rx="1.48454" ry="1.47965" fill="#161616"/>
<defs>
<filter id="filter0_i_7_211" x="0" y="-4" width="50" height="54" filterUnits="userSpaceOnUse" color-interpolation-filters="sRGB">
<feFlood flood-opacity="0" result="BackgroundImageFix"/>
<feBlend mode="normal" in="SourceGraphic" in2="BackgroundImageFix" result="shape"/>
<feColorMatrix in="SourceAlpha" type="matrix" values="0 0 0 0 0 0 0 0 0 0 0 0 0 0 0 0 0 0 127 0" result="hardAlpha"/>
<feOffset dy="-5"/>
<feGaussianBlur stdDeviation="2"/>
<feComposite in2="hardAlpha" operator="arithmetic" k2="-1" k3="1"/>
<feColorMatrix type="matrix" values="0 0 0 0 0 0 0 0 0 0 0 0 0 0 0 0 0 0 0.25 0"/>
<feBlend mode="normal" in2="shape" result="effect1_innerShadow_7_211"/>
</filter>
</defs>
</svg>
